HIERARCHY
ROOT Hips
{
	OFFSET 0.0000 0.0000 0.0000
	CHANNELS 6 Xposition Yposition Zposition Zrotation Xrotation Yrotation
	JOINT Ab
	{
		OFFSET -0.0000 8.1305 -0.0000
		CHANNELS 3 Zrotation Xrotation Yrotation
		JOINT Chest
		{
			OFFSET -0.0000 26.2902 -0.0000
			CHANNELS 3 Zrotation Xrotation Yrotation
			JOINT Neck
			{
				OFFSET -0.0000 26.2902 0.0000
				CHANNELS 3 Zrotation Xrotation Yrotation
				JOINT Head
				{
					OFFSET -0.0000 10.8167 0.0000
					CHANNELS 3 Zrotation Xrotation Yrotation
					End Site
					{
						OFFSET -0.0000 16.7167 0.0000
					}
				}
			}
			JOINT LeftCollar
			{
				OFFSET -0.0000 26.2902 0.0000
				CHANNELS 3 Zrotation Xrotation Yrotation
				JOINT LeftShoulder
				{
					OFFSET 19.6667 -0.0000 0.0000
					CHANNELS 3 Zrotation Xrotation Yrotation
					JOINT LeftElbow
					{
						OFFSET 27.2190 0.0000 0.0000
						CHANNELS 3 Zrotation Xrotation Yrotation
						JOINT LeftWrist
						{
							OFFSET 30.7431 0.0000 0.0000
							CHANNELS 3 Zrotation Xrotation Yrotation
							End Site
							{
								OFFSET 0.0000 -14.7500 0.0000
							}
						}
					}
				}
			}
			JOINT RightCollar
			{
				OFFSET -0.0000 26.2902 0.0000
				CHANNELS 3 Zrotation Xrotation Yrotation
				JOINT RightShoulder
				{
					OFFSET -19.6667 0.0000 0.0000
					CHANNELS 3 Zrotation Xrotation Yrotation
					JOINT RightElbow
					{
						OFFSET -27.2190 0.0000 0.0000
						CHANNELS 3 Zrotation Xrotation Yrotation
						JOINT RightWrist
						{
							OFFSET -30.7431 0.0000 0.0000
							CHANNELS 3 Zrotation Xrotation Yrotation
							End Site
							{
								OFFSET -0.0000 -14.7500 0.0000
							}
						}
					}
				}
			}
		}
	}
	JOINT LeftHip
	{
		OFFSET 11.8000 0.0000 0.0000
		CHANNELS 3 Zrotation Xrotation Yrotation
		JOINT LeftKnee
		{
			OFFSET -0.0000 -39.7832 0.0000
			CHANNELS 3 Zrotation Xrotation Yrotation
			JOINT LeftAnkle
			{
				OFFSET -0.0000 -41.7317 0.0000
				CHANNELS 3 Zrotation Xrotation Yrotation
				End Site
				{
					OFFSET -0.0000 -4.9167 16.7167
				}
			}
		}
	}
	JOINT RightHip
	{
		OFFSET -11.8000 0.0000 0.0000
		CHANNELS 3 Zrotation Xrotation Yrotation
		JOINT RightKnee
		{
			OFFSET -0.0000 -39.7832 0.0000
			CHANNELS 3 Zrotation Xrotation Yrotation
			JOINT RightAnkle
			{
				OFFSET -0.0000 -41.7317 0.0000
				CHANNELS 3 Zrotation Xrotation Yrotation
				End Site
				{
					OFFSET -0.0000 -4.9167 16.7167
				}
			}
		}
	}
}
MOTION
Frames: 18
Frame Time: 0.010000
-14.0871 97.1393 181.2615 358.9189 357.1287 179.4410 358.5219 346.5941 359.6208 2.9674 13.9742 359.4482 358.0574 7.1430 359.9447 0.0309 10.2676 359.8218 340.1390 357.2868 15.3935 323.7543 60.6725 332.0007 8.1744 357.5710 326.8866 86.3573 356.1920 346.9064 27.9115 355.8964 343.5062 45.0437 49.6304 5.2993 337.0688 353.8473 29.7727 270.0276 355.5433 3.4224 357.2524 1.7342 0.6936 357.3320 7.3234 4.4641 354.7436 351.7867 14.3184 358.5039 4.3049 9.5568 6.4189 8.0753 9.8377 350.7458 342.8837 315.8404 
-14.1160 97.1369 181.2455 358.9126 357.1151 179.4428 358.5224 346.5856 359.6248 2.9642 14.0023 359.4418 358.0036 7.0884 359.9623 0.0863 10.3160 359.8232 340.1463 357.2889 15.3986 323.5884 60.6195 332.1442 8.1324 357.5649 326.8796 86.4508 356.1934 346.8987 27.9148 355.8663 343.5196 45.0240 49.6027 5.3039 337.0608 353.7971 29.7827 269.9946 355.5478 3.4372 357.2230 1.7349 0.6701 357.3350 7.3145 4.4600 354.8733 351.7813 14.3331 358.4724 4.3019 9.5977 6.4369 8.0730 9.7926 350.7413 342.8885 315.8505 
-14.1403 97.1328 181.2375 358.9153 357.0931 179.4534 358.5169 346.5878 359.6291 2.9597 13.9999 359.4337 358.0114 7.0675 359.9592 0.1100 10.3508 359.8065 340.1521 357.2905 15.4103 323.6125 60.6248 332.1157 8.1484 357.5879 326.9108 86.3855 356.2533 346.8624 27.9584 355.8826 343.5582 45.0302 49.4772 5.1986 337.1726 353.8099 29.8853 269.9908 355.5548 3.5854 357.2157 1.7038 0.6325 357.3218 7.3442 4.4807 354.8989 351.7852 14.3396 358.4606 4.2799 9.5551 6.4324 8.0921 9.8347 350.7387 342.8683 315.8502 
-14.1670 97.1287 181.2292 358.9198 357.0717 179.4609 358.5284 346.6011 359.6151 2.9265 13.9824 359.4422 358.0612 7.0586 359.9396 0.0921 10.3857 359.7939 340.1412 357.2875 15.4108 323.6715 60.5848 332.1197 8.0904 357.6021 326.7586 87.9350 356.5980 347.6770 27.9495 355.8646 343.5233 45.0536 49.5507 5.2302 337.0852 353.8110 29.8345 270.0358 355.5056 3.5223 357.2106 1.6769 0.5784 357.2972 7.3611 4.5366 354.8222 351.7489 14.3396 358.4487 4.2529 9.5501 6.4351 8.1155 9.7949 350.7614 342.8439 315.8780 
-14.1928 97.1247 181.2200 358.9290 357.0474 179.4620 358.5284 346.6032 359.6169 2.9295 13.9785 359.4542 358.0590 7.0513 359.9280 0.0783 10.4027 359.8139 340.1145 357.3091 15.4155 323.7015 60.5433 332.1161 8.0085 357.6085 326.7726 88.0976 356.5674 347.6779 27.9523 355.8929 343.5388 45.0950 49.5292 5.1764 337.1202 353.8310 29.8503 270.1114 355.4933 3.6671 357.2038 1.6401 0.5771 357.2973 7.3996 4.5060 354.9718 351.7353 14.3488 358.4396 4.2303 9.5714 6.4403 8.1266 9.8278 350.7614 342.8273 315.8216 
-14.2187 97.1199 181.2133 358.9437 357.0344 179.4735 358.5305 346.6344 359.6369 2.9348 13.9440 359.4343 358.0424 7.0920 359.9362 0.1054 10.3848 359.8157 340.1128 357.2796 15.3948 323.5523 60.5303 332.2876 8.1077 357.5435 326.7627 87.9273 356.5894 347.6346 27.9524 355.8929 343.5269 45.0875 49.6225 5.2082 337.0551 353.8167 29.7640 270.1553 355.4219 3.6632 357.2127 1.6086 0.5497 357.2664 7.4434 4.5079 354.5871 351.6712 14.3931 358.4435 4.2185 9.5091 6.4230 8.1413 9.8604 350.7670 342.8202 315.8392 
-14.2569 97.1158 181.2060 358.9326 357.0179 179.4750 358.5153 346.6558 359.6275 2.9246 13.9213 359.4560 358.0851 7.1391 359.9199 0.0991 10.3511 359.7846 340.0839 357.3072 15.3448 323.5072 60.4490 332.4188 7.9746 357.5972 326.7190 87.9647 356.5954 347.5566 27.9354 355.8773 343.5231 45.1762 49.5994 5.1381 337.0165 353.8343 29.7471 270.1536 355.3768 3.7259 357.1745 1.5632 0.5021 357.2610 7.5094 4.5344 354.8640 351.6376 14.4081 358.3997 4.1926 9.4929 6.4435 8.1698 9.8692 350.7760 342.7925 315.8437 
-14.2880 97.1058 181.2030 358.9453 356.9732 179.4814 358.5358 346.6480 359.6303 2.8988 13.9167 359.4508 358.0618 7.0345 359.9579 0.1180 10.4979 359.8447 340.0970 357.2903 15.4022 323.6705 60.5479 332.2051 8.0917 357.5615 326.7738 88.3625 356.6000 347.9712 27.9601 355.8907 343.5569 45.2041 49.5781 5.0628 337.0508 353.8143 29.7910 270.1621 355.4066 3.7338 357.1749 1.4920 0.4766 357.2428 7.5631 4.5301 354.9356 351.6249 14.4274 358.3894 4.1445 9.5136 6.4559 8.1772 9.8434 350.8018 342.7651 315.8346 
-14.3199 97.1022 181.1901 358.9565 356.9601 179.4944 358.5336 346.6575 359.6238 2.8941 13.9334 359.4664 358.0990 7.0417 359.9489 0.1115 10.4769 359.8271 340.1117 357.2653 15.3611 323.5302 60.5058 332.3670 8.1174 357.5857 326.7524 88.2348 356.6148 347.8881 27.9501 355.8579 343.5510 45.2380 49.5956 5.0576 336.9886 353.8111 29.7516 270.2057 355.3483 3.7174 357.1657 1.4444 0.4649 357.2393 7.6443 4.4993 354.9842 351.5780 14.4448 358.3897 4.1385 9.4645 6.4339 8.1933 9.8677 350.7980 342.7720 315.8427 
-14.3553 97.0943 181.1843 358.9652 356.9261 179.5010 358.5540 346.6529 359.6304 2.8704 13.9520 359.4518 358.0368 7.0152 359.9587 0.1889 10.4891 359.8299 340.0939 357.2895 15.4085 323.7203 60.5337 332.1971 8.0387 357.6037 326.7614 88.2537 356.6197 347.8657 27.9784 355.8702 343.5906 45.2324 49.5433 5.0044 336.9834 353.7572 29.7888 270.7829 355.5405 4.2889 357.1460 1.3687 0.4616 357.2467 7.7294 4.5255 354.6601 351.5078 14.4448 358.3745 4.0966 9.4519 6.4380 8.2210 9.8894 350.8315 342.7239 315.8292 
-14.3886 97.0904 181.1675 358.9726 356.9202 179.4930 358.5540 346.6575 359.6405 2.8760 14.0007 359.4611 358.0079 6.9670 359.9671 0.2176 10.5045 359.8229 340.0842 357.2663 15.4300 323.7940 60.5355 332.1136 8.1359 357.5736 326.7835 87.9145 356.4556 347.6480 27.9823 355.8982 343.5899 45.1981 49.5167 5.0554 336.9754 353.7849 29.7873 270.8523 355.4920 4.2756 357.1431 1.3347 0.4151 357.2096 7.8085 4.5323 355.0098 351.4739 14.4667 358.3686 4.0955 9.4576 6.4244 8.2309 9.8767 350.8287 342.7215 315.8426 
-14.4230 97.0842 181.1497 358.9912 356.9047 179.4983 358.5537 346.6653 359.6364 2.8805 14.0120 359.4605 358.0016 6.9719 359.9457 0.2677 10.4920 359.8029 340.0695 357.2978 15.4548 323.9404 60.5388 331.9797 8.0278 357.6033 326.7952 88.0392 356.4239 347.6603 27.9499 355.8720 343.5776 45.2577 49.6513 5.0643 336.9369 353.7952 29.7056 270.3000 355.2856 3.6902 357.1401 1.2916 0.3653 357.2063 7.8732 4.5015 354.9702 351.4225 14.5414 358.3652 4.0884 9.4373 6.4179 8.2458 9.9015 350.8494 342.6935 315.8314 
-14.4553 97.0792 181.1302 359.0137 356.8895 179.5087 358.5589 346.6678 359.6376 2.8804 14.0256 359.4560 358.0322 6.9589 359.9420 0.2159 10.5291 359.8195 340.0932 357.2688 15.4663 323.9338 60.5907 331.9512 8.1599 357.5580 326.8460 87.8751 356.3565 347.6583 27.9759 355.8935 343.6069 45.2460 49.5828 5.0121 337.0307 353.8257 29.7462 270.2588 355.3156 3.7020 357.1486 1.2448 0.3585 357.1805 7.9653 4.5387 354.8285 351.3784 14.4996 358.3717 4.0826 9.4057 6.4055 8.2633 9.9187 350.8717 342.6579 315.8549 
-14.4929 97.0745 181.1052 359.0274 356.8810 179.5011 358.5630 346.6674 359.6428 2.8734 14.0501 359.4772 358.0394 6.9752 359.9391 0.2292 10.5324 359.8002 340.0884 357.2880 15.4423 323.8710 60.5471 332.0531 8.0824 357.5751 326.7941 87.7377 356.3896 347.5601 28.0002 355.9221 343.6254 45.2165 49.5272 5.0172 337.0695 353.8083 29.8011 270.2503 355.3302 3.6730 357.1365 1.2134 0.3426 357.1762 8.0463 4.4932 354.7967 351.3046 14.5834 358.3624 4.0788 9.4222 6.4080 8.2809 9.9082 350.8792 342.6396 315.8373 
-14.5326 97.0700 181.0864 359.0446 356.8682 179.4997 358.5594 346.6753 359.6569 2.8979 14.0711 359.4821 358.0170 6.9986 359.9484 0.2329 10.5106 359.8076 340.0652 357.2816 15.4041 323.7702 60.5016 332.1778 8.1103 357.5806 326.7684 87.7415 356.3651 347.5843 27.9953 355.9029 343.6283 45.1914 49.5593 5.0424 336.9981 353.8186 29.7633 270.2719 355.3350 3.5643 357.1319 1.1810 0.3242 357.1711 8.1004 4.4745 354.8202 351.2591 14.5977 358.3566 4.0750 9.4064 6.3981 8.2870 9.9098 350.8970 342.6088 315.8452 
-14.5725 97.0644 181.0680 359.0533 356.8429 179.4995 358.5568 346.6842 359.6541 2.8839 14.0727 359.4917 358.0827 7.0123 359.9403 0.1589 10.5227 359.8146 340.0551 357.2583 15.4042 323.7925 60.4870 332.1849 8.1426 357.5928 326.7654 87.4458 356.3533 347.5369 28.0206 355.8955 343.6162 45.1758 49.6277 5.0177 337.0297 353.7972 29.7871 270.1011 355.4735 3.7501 357.1148 1.1333 0.2982 357.1561 8.1674 4.4781 354.8933 351.2421 14.6421 358.3401 4.0498 9.3940 6.3964 8.3177 9.9131 350.9418 342.5768 315.8718 
-14.6128 97.0586 181.0388 359.0764 356.8440 179.4982 358.5477 346.6764 359.6756 2.9188 14.1526 359.4924 358.0999 6.9670 359.9560 0.1099 10.5593 359.8229 340.0921 357.3185 15.0231 322.3464 59.9266 333.8256 8.0823 357.5916 326.3374 87.4277 356.4301 347.0830 27.9916 355.9040 343.5894 45.1165 49.7048 5.1181 336.9944 353.8093 29.7665 270.1237 355.4779 3.6532 357.1108 1.1219 0.2888 357.1548 8.2288 4.4796 354.8975 351.1750 14.6169 358.3405 4.0621 9.3454 6.3868 8.3369 9.9637 350.9250 342.5604 315.8510 
-14.6590 97.0538 181.0237 359.0756 356.8189 179.4818 358.5325 346.6904 359.6805 2.9235 14.1537 359.5180 358.0872 7.0059 359.9363 0.1666 10.5287 359.8252 340.0744 357.3428 14.9882 322.3097 59.8638 333.8621 8.0468 357.5740 326.3727 87.6342 356.3309 347.1044 27.9753 355.8882 343.5804 45.1717 49.7446 5.0806 336.9144 353.8033 29.7369 270.1564 355.4956 3.5964 357.0764 1.0703 0.2780 357.1521 8.3069 4.4522 354.9417 351.1387 14.6880 358.3011 4.0318 9.4147 6.4054 8.3566 9.9084 350.9735 342.5126 315.8611 
